<svg xmlns="http://www.w3.org/2000/svg" width="32" height="32" viewBox="0 0 32 32">
  <g id="Group_13" data-name="Group 13" transform="translate(-137 -169)">
    <circle id="Ellipse_3" data-name="Ellipse 3" cx="16" cy="16" r="16" transform="translate(137 169)" fill="#ff7979"/>
    <path id="thermometer-quarter-solid" d="M8.312,16.624a2.771,2.771,0,1,1-4.156-2.4V12.468a1.385,1.385,0,0,1,2.771,0v1.757A2.769,2.769,0,0,1,8.312,16.624ZM9.7,12.959a5.541,5.541,0,0,1-4.156,9.206H5.5a5.541,5.541,0,0,1-4.117-9.206v-8.8a4.156,4.156,0,0,1,8.312,0ZM9,16.624A4.021,4.021,0,0,0,7.62,13.745V4.156a2.078,2.078,0,0,0-4.156,0v9.589a4.029,4.029,0,0,0-1.385,2.861,3.477,3.477,0,0,0,3.438,3.481h.025A3.467,3.467,0,0,0,9,16.624Z" transform="translate(147 174)" fill="#fff"/>
  </g>
</svg>
